# xmcd
#
# Track frame offsets: 
#        150
#        13026
#        28406
#        41782
#        61329
#        76754
#        91166
#        111091
#        131122
#        152573
#        165769
#        184977
#
# Disc length: 2754 seconds
#
# Revision: 0
# Processed by: cddbd v1.5.2PL0 Copyright (c) Steve Scherf et al.
# Submitted via: ExactAudioCopy v1.3
#
DISCID=910ac00c
DTITLE=Carrie Underwood - Demo 03 (Live From Little Rock)
DYEAR=2002
DGENRE=Country
TTITLE0=Can't Get Enough
TTITLE1=Lesson In Leavin'
TTITLE2=Hit Me With Your Best Shot
TTITLE3=Goodbye Earl
TTITLE4=Bye Bye
TTITLE5=Romeo Boy
TTITLE6=455 Rocket
TTITLE7=Show Me Heaven
TTITLE8=Proud Mary
TTITLE9=If I Fall, You're Going Down With Me
TTITLE10=Be Myself
TTITLE11=Respect
EXTD=
EXTT0=
EXTT1=
EXTT2=
EXTT3=
EXTT4=
EXTT5=
EXTT6=
EXTT7=
EXTT8=
EXTT9=
EXTT10=
EXTT11=
PLAYORDER=
